<?xml version="1.0" encoding="UTF-8" standalone="no"?>
<svg
   xml:space="preserve"
   width="297.35303mm"
   height="162.43671mm"
   version="1.1"
   shape-rendering="geometricPrecision"
   text-rendering="geometricPrecision"
   image-rendering="optimizeQuality"
   fill-rule="evenodd"
   clip-rule="evenodd"
   viewBox="0 0 297.34223 162.43051"
   id="svg1411"
   sodipodi:docname="ClassHierarchy.svg"
   inkscape:version="1.2.2 (b0a8486541, 2022-12-01)"
   xmlns:inkscape="http://www.inkscape.org/namespaces/inkscape"
   xmlns:sodipodi="http://sodipodi.sourceforge.net/DTD/sodipodi-0.dtd"
   xmlns="http://www.w3.org/2000/svg"
   xmlns:svg="http://www.w3.org/2000/svg"><defs
   id="defs1415" /><sodipodi:namedview
   id="namedview1413"
   pagecolor="#ffffff"
   bordercolor="#666666"
   borderopacity="1.0"
   inkscape:showpageshadow="2"
   inkscape:pageopacity="0.0"
   inkscape:pagecheckerboard="0"
   inkscape:deskcolor="#d1d1d1"
   inkscape:document-units="mm"
   showgrid="false"
   inkscape:zoom="1.1691912"
   inkscape:cx="561.92692"
   inkscape:cy="306.62223"
   inkscape:window-width="1920"
   inkscape:window-height="1115"
   inkscape:window-x="0"
   inkscape:window-y="0"
   inkscape:window-maximized="1"
   inkscape:current-layer="svg1411" />
 <g
   id="Livello_x0020_1"
   inkscape:label="Livello 1"
   inkscape:groupmode="layer"
   transform="translate(0,-1.4860384e-4)">
  <metadata
   id="CorelCorpID_0Corel-Layer" />
  <rect
   fill="#ffffcc"
   stroke="#000000"
   stroke-width="0.3528"
   stroke-miterlimit="22.9256"
   x="0.17640001"
   y="0.17640001"
   width="296.98941"
   height="162.078"
   id="rect1318" />
  <rect
   fill="#ffffff"
   stroke="#000000"
   stroke-width="0.3528"
   stroke-miterlimit="22.9256"
   x="121.1721"
   y="30.8358"
   width="54.998001"
   height="14.9995"
   id="rect1320" />
  <text
   x="133.2513"
   y="39.827702"
   fill="#000000"
   font-weight="normal"
   font-size="4.2331px"
   font-family="sans-serif"
   id="text1322">Master::Protocol</text>
  <rect
   fill="#ffffff"
   stroke="#000000"
   stroke-width="0.3528"
   stroke-miterlimit="22.9256"
   x="191.1696"
   y="100.8333"
   width="54.998001"
   height="14.9995"
   id="rect1324" />
  <text
   x="198.78011"
   y="109.8252"
   fill="#000000"
   font-weight="normal"
   font-size="4.2331px"
   font-family="sans-serif"
   id="text1326">Master::UDPProtocol</text>
  <rect
   fill="#ffffff"
   stroke="#000000"
   stroke-width="0.3528"
   stroke-miterlimit="22.9256"
   x="51.174599"
   y="100.8333"
   width="54.998001"
   height="14.9995"
   id="rect1328" />
  <text
   x="59.020699"
   y="109.8252"
   fill="#000000"
   font-weight="normal"
   font-size="4.2331px"
   font-family="sans-serif"
   id="text1330">Master::TCPProtocol</text>
  <rect
   fill="#ffffff"
   stroke="#000000"
   stroke-width="0.3528"
   stroke-miterlimit="22.9256"
   x="121.1721"
   y="65.834602"
   width="54.998001"
   height="14.9995"
   id="rect1332" />
  <text
   x="127.0184"
   y="74.826401"
   fill="#000000"
   font-weight="normal"
   font-size="4.2331px"
   font-family="sans-serif"
   id="text1334">Master::TCPIPProtocol</text>
  <rect
   fill="#00ccff"
   stroke="#000000"
   stroke-width="0.3528"
   stroke-miterlimit="22.9256"
   x="51.174599"
   y="65.834602"
   width="54.998001"
   height="14.9995"
   id="rect1336" />
  <text
   x="55.963699"
   y="74.826401"
   fill="#000000"
   font-weight="normal"
   font-size="4.2331px"
   font-family="sans-serif"
   id="text1338">Master::</text>
  <text
   x="85.833504"
   y="74.826401"
   fill="#000000"
   font-weight="normal"
   font-size="4.2331px"
   font-family="sans-serif"
   id="text1340">Protocol</text>
  <text
   x="71.253304"
   y="74.826401"
   fill="#000000"
   font-weight="normal"
   font-size="4.2331px"
   font-family="sans-serif"
   id="text1342">Dummy</text>
  <rect
   fill="#00ccff"
   stroke="#000000"
   stroke-width="0.3528"
   stroke-miterlimit="22.9256"
   x="191.1696"
   y="65.834602"
   width="54.998001"
   height="14.9995"
   id="rect1344" />
  <text
   x="198.9371"
   y="74.826401"
   fill="#000000"
   font-weight="normal"
   font-size="4.2331px"
   font-family="sans-serif"
   id="text1346">Master::</text>
  <text
   x="222.8502"
   y="74.826401"
   fill="#000000"
   font-weight="normal"
   font-size="4.2331px"
   font-family="sans-serif"
   id="text1348">Protocol</text>
  <text
   x="214.2267"
   y="74.826401"
   fill="#000000"
   font-weight="normal"
   font-size="4.2331px"
   font-family="sans-serif"
   id="text1350">RTU</text>
  <rect
   fill="#00ccff"
   stroke="#000000"
   stroke-width="0.2"
   stroke-miterlimit="22.9256"
   x="11.5993"
   y="135.83211"
   width="64.997704"
   height="14.9995"
   id="rect1352" />
  <text
   x="19.8923"
   y="144.8239"
   fill="#000000"
   font-weight="normal"
   font-size="4.2331px"
   font-family="sans-serif"
   id="text1354">Master::TCPProtocolIndy</text>
  <rect
   fill="#00ccff"
   stroke="#000000"
   stroke-width="0.3528"
   stroke-miterlimit="22.9256"
   x="81.1735"
   y="135.8694"
   width="64.997704"
   height="14.9995"
   id="rect1356" />
  <text
   x="85.893303"
   y="144.86121"
   fill="#000000"
   font-weight="normal"
   font-size="4.2331px"
   font-family="sans-serif"
   id="text1358">Master::TCPProtocolWinsock</text>
  <rect
   fill="#00ccff"
   stroke="#000000"
   stroke-width="0.3528"
   stroke-miterlimit="22.9256"
   x="151.17101"
   y="135.90669"
   width="64.997704"
   height="14.9995"
   id="rect1360" />
  <text
   x="159.6516"
   y="144.8985"
   fill="#000000"
   font-weight="normal"
   font-size="4.2331px"
   font-family="sans-serif"
   id="text1362">Master::UDPProtocolIndy</text>
  <rect
   fill="#00ccff"
   stroke="#000000"
   stroke-width="0.3528"
   stroke-miterlimit="22.9256"
   x="221.1685"
   y="135.944"
   width="64.997704"
   height="14.9995"
   id="rect1364" />
  <text
   x="225.65269"
   y="144.93581"
   fill="#000000"
   font-weight="normal"
   font-size="4.2331px"
   font-family="sans-serif"
   id="text1366">Master::</text>
  <text
   x="247.0562"
   y="144.93581"
   fill="#000000"
   font-weight="normal"
   font-size="4.2331px"
   font-family="sans-serif"
   id="text1368">PProtocolWinsock</text>
  <text
   x="240.9422"
   y="144.93581"
   fill="#000000"
   font-weight="normal"
   font-size="4.2331px"
   font-family="sans-serif"
   id="text1370">UD</text>
  <g
   id="g1374">
   <path
   fill="#000000"
   fill-rule="nonzero"
   d="m 148.8475,47.8983 v 17.9363 h -0.3528 V 47.8983 Z m -0.1764,-2.063 1.0888,2.1769 h -2.1768 l 1.0881,-2.1769 z"
   id="path1372" />
  </g>
  <g
   id="g1378">
   <path
   fill="#000000"
   fill-rule="nonzero"
   d="m 67.9961,117.2473 -23.7889,18.7233 -0.2182,-0.2772 23.7889,-18.7233 z m 1.512,-1.4145 -1.0373,2.2019 -1.3464,-1.7105 2.3836,-0.4914 z"
   id="path1376" />
  </g>
  <g
   id="g1382">
   <path
   fill="#000000"
   fill-rule="nonzero"
   d="m 139.3292,83.0307 0.3528,0.0064 -0.212,1.8994 -0.5502,1.6565 -0.8664,1.4239 -1.1568,1.2027 -1.4205,0.9967 -1.6593,0.8084 -1.8748,0.6383 -2.0686,0.4865 -2.2409,0.3518 -2.3917,0.2341 -2.5209,0.133 -2.6286,0.0481 -2.7143,-0.0203 -2.7781,-0.0725 -2.8202,-0.1086 -2.8402,-0.1284 -2.838,-0.1321 -2.814,-0.1196 -2.7676,-0.0911 -2.6993,-0.0462 -2.6083,0.0145 -2.4954,0.0912 -2.3599,0.1841 -2.2017,0.2927 -2.0208,0.4166 -1.8171,0.5556 -1.5909,0.7088 -1.3434,0.8756 -1.0766,1.0562 -0.7933,1.2538 -0.4924,1.4723 -0.1697,1.7143 h -0.3528 l 0.1771,-1.7861 0.5188,-1.5511 0.8381,-1.325 1.1306,-1.11 1.3958,-0.9104 1.6359,-0.7292 1.8533,-0.5668 2.049,-0.4226 2.2235,-0.2955 2.3765,-0.1855 2.508,-0.0918 2.6179,-0.0145 2.7059,0.0464 2.7722,0.0911 2.8162,0.1198 2.8386,0.1321 2.8388,0.1284 2.8168,0.1084 2.7727,0.0723 2.7065,0.0203 2.618,-0.0479 2.5071,-0.1322 2.3737,-0.2323 2.2177,-0.3482 2.0392,-0.4793 1.838,-0.6257 1.6145,-0.7862 1.37,-0.9607 1.1064,-1.1497 0.8252,-1.356 0.5258,-1.5829 0.2042,-1.832 z m 0.2133,-2.0595 1.0496,2.1961 -2.1765,-0.0391 1.127,-2.157 z"
   id="path1380" />
  </g>
  <g
   id="g1386">
   <path
   fill="#000000"
   fill-rule="nonzero"
   d="m 139.3292,48.032 0.3528,0.0064 -0.212,1.8994 -0.5502,1.6565 -0.8664,1.4239 -1.1568,1.2027 -1.4205,0.9967 -1.6593,0.8084 -1.8748,0.6383 -2.0686,0.4865 -2.2409,0.3518 -2.3917,0.2341 -2.5209,0.133 -2.6286,0.0481 -2.7143,-0.0203 -2.7781,-0.0725 -2.8202,-0.1086 -2.8402,-0.1284 -2.838,-0.1321 -2.814,-0.1196 -2.7676,-0.0911 -2.6993,-0.0462 -2.6083,0.0145 -2.4954,0.0912 -2.3599,0.1841 -2.2017,0.2927 -2.0208,0.4166 -1.8171,0.5556 -1.5909,0.7088 -1.3434,0.8756 -1.0766,1.0562 -0.7933,1.2538 -0.4924,1.4723 -0.1697,1.7143 h -0.3528 l 0.1771,-1.7861 0.5188,-1.5511 0.8381,-1.325 1.1306,-1.11 1.3958,-0.9104 1.6359,-0.7292 1.8533,-0.5668 2.049,-0.4226 2.2235,-0.2955 2.3765,-0.1855 2.508,-0.0918 2.6179,-0.0145 2.7059,0.0464 2.7722,0.0911 2.8162,0.1198 2.8386,0.1321 2.8388,0.1284 2.8168,0.1084 2.7727,0.0723 2.7065,0.0203 2.618,-0.0479 2.5071,-0.1322 2.3737,-0.2323 2.2177,-0.3482 2.0392,-0.4793 1.838,-0.6257 1.6145,-0.7862 1.37,-0.9607 1.1064,-1.1497 0.8252,-1.356 0.5258,-1.5829 0.2042,-1.832 z m 0.2133,-2.0595 1.0496,2.1961 -2.1765,-0.0391 1.127,-2.157 z"
   id="path1384" />
  </g>
  <g
   id="g1390">
   <path
   fill="#000000"
   fill-rule="nonzero"
   d="m 157.6602,83.0371 0.3528,-0.0064 0.2042,1.832 0.5258,1.5829 0.8252,1.356 1.1064,1.1497 1.37,0.9607 1.6145,0.7862 1.838,0.6257 2.0392,0.4793 2.2177,0.3482 2.3737,0.2323 2.5071,0.1322 2.618,0.0479 2.7065,-0.0203 2.7727,-0.0723 2.8168,-0.1084 2.8388,-0.1284 2.8386,-0.1321 2.8162,-0.1198 2.7722,-0.0911 2.7059,-0.0464 2.6179,0.0145 2.508,0.0918 2.3765,0.1855 2.2235,0.2955 2.049,0.4226 1.8533,0.5668 1.6359,0.7292 1.3958,0.9104 1.1306,1.11 0.8381,1.325 0.5188,1.5511 0.1771,1.7861 h -0.3528 l -0.1697,-1.7143 -0.4924,-1.4723 -0.7933,-1.2538 -1.0766,-1.0562 -1.3434,-0.8756 -1.5909,-0.7088 -1.8171,-0.5556 -2.0208,-0.4166 -2.2017,-0.2927 -2.3599,-0.1841 -2.4954,-0.0912 -2.6083,-0.0145 -2.6993,0.0462 -2.7676,0.0911 -2.814,0.1196 -2.838,0.1321 -2.8402,0.1284 -2.8202,0.1086 -2.7781,0.0725 -2.7143,0.0203 -2.6286,-0.0481 -2.5209,-0.133 -2.3917,-0.2341 -2.2409,-0.3518 -2.0686,-0.4865 -1.8748,-0.6383 -1.6593,-0.8084 -1.4205,-0.9967 -1.1568,-1.2027 -0.8664,-1.4239 -0.5502,-1.6565 -0.212,-1.8994 z m 0.1395,-2.0659 1.1277,2.157 -2.1765,0.039 1.0489,-2.196 z"
   id="path1388" />
  </g>
  <g
   id="g1394">
   <path
   fill="#000000"
   fill-rule="nonzero"
   d="m 157.6602,48.0384 0.3528,-0.0064 0.2042,1.832 0.5258,1.5829 0.8252,1.356 1.1064,1.1497 1.37,0.9607 1.6145,0.7862 1.838,0.6257 2.0392,0.4793 2.2177,0.3482 2.3737,0.2323 2.5071,0.1322 2.618,0.0479 2.7065,-0.0203 2.7727,-0.0723 2.8168,-0.1084 2.8388,-0.1284 2.8386,-0.1321 2.8162,-0.1198 2.7722,-0.0911 2.7059,-0.0464 2.6179,0.0145 2.508,0.0918 2.3765,0.1855 2.2235,0.2955 2.049,0.4226 1.8533,0.5668 1.6359,0.7292 1.3958,0.9104 1.1306,1.11 0.8381,1.325 0.5188,1.5511 0.1771,1.7861 h -0.3528 l -0.1697,-1.7143 -0.4924,-1.4723 -0.7933,-1.2538 -1.0766,-1.0562 -1.3434,-0.8756 -1.5909,-0.7088 -1.8171,-0.5556 -2.0208,-0.4166 -2.2017,-0.2927 -2.3599,-0.1841 -2.4954,-0.0912 -2.6083,-0.0145 -2.6993,0.0462 -2.7676,0.0911 -2.814,0.1196 -2.838,0.1321 -2.8402,0.1284 -2.8202,0.1086 -2.7781,0.0725 -2.7143,0.0203 -2.6286,-0.0481 -2.5209,-0.133 -2.3917,-0.2341 -2.2409,-0.3518 -2.0686,-0.4865 -1.8748,-0.6383 -1.6593,-0.8084 -1.4205,-0.9967 -1.1568,-1.2027 -0.8664,-1.4239 -0.5502,-1.6565 -0.212,-1.8994 z m 0.1395,-2.0659 1.1277,2.157 -2.1765,0.039 1.0489,-2.196 z"
   id="path1392" />
  </g>
  <g
   id="g1398">
   <path
   fill="#000000"
   fill-rule="nonzero"
   d="m 207.9911,117.3219 -23.7889,18.7233 -0.2182,-0.2772 23.7889,-18.7233 z m 1.512,-1.4145 -1.0373,2.2019 -1.3464,-1.7105 2.3836,-0.4914 z"
   id="path1396" />
  </g>
  <g
   id="g1402">
   <path
   fill="#000000"
   fill-rule="nonzero"
   d="m 89.5772,116.9577 24.2032,18.7722 -0.2162,0.2788 -24.2032,-18.7722 z m -1.7382,-1.125 2.3874,0.4738 -1.3342,1.7201 -1.0533,-2.1939 z"
   id="path1400" />
  </g>
  <g
   id="g1406">
   <path
   fill="#000000"
   fill-rule="nonzero"
   d="m 229.5722,117.0323 24.2032,18.7722 -0.2162,0.2788 -24.2032,-18.7722 z m -1.7382,-1.125 2.3874,0.4738 -1.3342,1.7201 -1.0533,-2.1939 z"
   id="path1404" />
  </g>
  <text
   x="99.3367"
   y="18.5858"
   fill="#000000"
   font-weight="normal"
   font-size="8.4664px"
   font-family="sans-serif"
   id="text1408">Class Hierarchy Summary</text>
 </g>
</svg>
